<?xml version="1.0" encoding="utf-8"?>
<!-- Generator: Adobe Illustrator 24.1.1, SVG Export Plug-In . SVG Version: 6.00 Build 0)  -->
<svg version="1.1" xmlns="http://www.w3.org/2000/svg" xmlns:xlink="http://www.w3.org/1999/xlink" x="0px" y="0px"
	 viewBox="0 0 252 144" style="enable-background:new 0 0 252 144;" xml:space="preserve">
<style type="text/css">
	.st0{fill:none;stroke:#000000;stroke-width:0.5;stroke-dasharray:4,3;}
	.st1{fill:none;stroke:#000000;stroke-width:0.5;}
	.st2{fill:#111111;stroke:#020203;stroke-miterlimit:10;}
	.st3{fill:none;}
	.st4{fill:#020203;}
	.st5{font-family:'ArialNarrow';}
	.st6{font-size:12.2px;}
</style>
<g id="Guías">
</g>
<g id="Marcas_de_recorte">
	<line class="st0" x1="510.5" y1="-36.06" x2="510.5" y2="-8.76"/>
	<line class="st0" x1="510.5" y1="260.76" x2="510.5" y2="288.06"/>
	<line class="st0" x1="934.09" y1="-35.46" x2="934.09" y2="-8.46"/>
	<line class="st0" x1="933.89" y1="512.46" x2="933.89" y2="539.46"/>
	<line class="st1" x1="753.51" y1="253.36" x2="780.51" y2="253.36"/>
	<line class="st1" x1="1086.51" y1="253.43" x2="1113.51" y2="253.43"/>
	<path class="st2" d="M11.46,0c45,128,45,128,45,128h24l11-27c40,0,40,0,40,0l11,27h25l26-80l14,80h23l-21-128h-24l-30,93l-27-70
		l-13,33l7,21h-22l30-77h-26l-35,92l-32-92H11.46z"/>
	<rect x="57.1" y="131.71" class="st3" width="574.63" height="41.63"/>
	<text transform="matrix(1 0 0 1 57.0951 140.4491)" class="st4 st5 st6">VECTOR ACCOUNT MANAGEMENT</text>
</g>
</svg>
